Afrikas drottning
	
	
Originaltitel:	The African Queen 	
Regissör:	John Huston
Utgivningsår:	1951

		
Om Afrikas drottning:
Efter C.S. Foresters roman. En alkoholiserad skeppare och en pryd ungmö färdas på skorven "Afrikas drottning" nedför en afrikansk flod under första världskriget. Färden blir outhärdlig för de båda, p.g.a tyskarna, den osunda tropiska miljön och inte minst varandras sällskap.


Skådespelare:
	Humphrey Bogart, Katharine Hepburn, Robert Morley, Peter Bull
Manus:
	James Agee, John Huston
Genre:
	Drama, Romantik, Äventyr, Krig
Produktionsland:
	Storbritannien, USA



September 1914, news reaches the colony German Eastern Africa that its motherland is at war, so Reverend Samuel Sayer became a hostile foreigner; German imperial troops burn down his mission, driving him mad- shortly after his well-educated, snooty sister Rose Sayer buries him and leaves by the only available transport, the crummy river steamboat 'African Queen' of grumpy boorish compatriot Charlie Allnut. As if a long difficult journey without any comfort weren't bad enough for such odd companions, she is determined to find a way to do their bit for the British war effort (and revenge her brother) and aims high as God is obviously on their side: construct their own equipment, a torpedo and the converted steamboat, to take out a huge German warship, the Louisa, which is hard to find on the giant lake and first of all to reach, in fact as daunting an expedition as nobody attempted since the late adventurous explorer John Speakes...


General
Complete name                    \The.African.Queen.1951.Swesub.DVDRip.XviD. -Lindoff.avi
Format                           : AVI
Format/Info                      : Audio Video Interleave
File size                        : 1.68 GiB
Duration                         : 1h 40mn
Overall bit rate                 : 2 390 Kbps
Writing application              : VirtualDubMod 1.5.10.2 (build 2542/release)
Writing library                  : VirtualDubMod build 2542/release

Video
ID                               : 0
Format                           : MPEG-4 Visual
Format profile                   : Advanced Simple@L5
Format settings, BVOP            : Yes
Format settings, QPel            : No
Format settings, GMC             : No warppoints
Format settings, Matrix          : Default (H.263)
Muxing mode                      : Packed bitstream
Codec ID                         : XVID
Codec ID/Hint                    : XviD
Duration                         : 1h 40mn
Bit rate                         : 2 253 Kbps
Width                            : 480 pixels
Height                           : 352 pixels
Display aspect ratio             : 4:3
Frame rate                       : 25.000 fps
Color space                      : YUV
Chroma subsampling               : 4:2:0
Bit depth                        : 8 bits
Scan type                        : Progressive
Bits/(Pixel*Frame)               : 0.533
Stream size                      : 1.58 GiB (94%)
Writing library                  : XviD 57

Audio
ID                               : 1
Format                           : MPEG Audio
Format version                   : Version 1
Format profile                   : Layer 3
Mode                             : Joint stereo
Mode extension                   : MS Stereo
Codec ID                         : 55
Codec ID/Hint                    : MP3
Duration                         : 1h 40mn
Bit rate mode                    : Constant
Bit rate                         : 128 Kbps
Channel(s)                       : 2 channels
Sampling rate                    : 44.1 KHz
Stream size                      : 91.7 MiB (5%)
Alignment                        : Aligned on interleaves
Interleave, duration             : 40 ms (1.00 video frame)
Interleave, preload duration     : 522 ms


